<svg width="22" height="14" viewBox="0 0 22 14" fill="none" xmlns="http://www.w3.org/2000/svg">
<path d="M9.2037 5.553C9.59122 4.97855 9.78498 4.30835 9.78498 3.54242C9.78498 1.53186 8.04113 7.10183e-09 6.10351 5.39055e-09L0.484405 4.27821e-10C0.193762 1.71128e-10 -1.69115e-10 0.191483 -4.22788e-10 0.478706L-1.11616e-08 12.6378C-1.14153e-08 12.9251 0.193762 13.1165 0.484405 13.1165L6.68479 13.1165C9.00994 13.1165 10.9476 11.2975 10.9476 8.99967C10.9476 7.56355 10.2694 6.31893 9.2037 5.553ZM2.42203 2.48927L6.10351 2.48927C6.78167 2.48927 7.26608 3.06372 7.26608 3.63817C7.26608 4.30836 6.68479 4.78706 6.10351 4.78706L2.42203 4.78706L2.42203 2.48927ZM6.78167 10.723L2.42203 10.723L2.42203 7.27634L6.78167 7.27634C7.75048 7.27634 8.52553 8.04226 8.52553 8.99967C8.52553 9.95709 7.75048 10.723 6.78167 10.723Z" fill="white"/>
<path d="M21.7014 8.13801C21.7014 5.26578 19.4731 2.96799 16.6635 2.96799C13.854 2.96799 11.6257 5.26578 11.6257 8.13801C11.6257 11.0103 13.854 13.308 16.6635 13.308C18.3105 13.308 19.8606 12.4464 20.8294 11.0103C20.9263 10.8188 21.0232 10.6273 21.1201 10.4358C21.2169 10.3401 21.1201 10.1486 20.9263 10.1486L18.5043 10.1486C18.4074 10.1486 18.4074 10.1486 18.3105 10.2443C17.8261 10.723 17.2448 10.9145 16.6635 10.9145C15.4041 10.9145 14.4353 10.0528 14.1446 8.8082L21.2169 8.8082C21.5076 8.8082 21.7014 8.61672 21.7014 8.32949L21.7014 8.13801ZM16.6635 5.45726C17.5355 5.45726 18.3105 5.93597 18.7949 6.7019L14.5322 6.7019C14.9197 5.93597 15.7916 5.45726 16.6635 5.45726Z" fill="white"/>
<path d="M18.698 2.39355L14.2415 2.39355C14.0478 2.39355 13.854 2.20206 13.854 2.01058L13.854 0.957427C13.854 0.765944 14.0478 0.57446 14.2415 0.57446L18.698 0.57446C18.8918 0.57446 19.0856 0.765944 19.0856 0.957427L19.0856 2.10632C19.0856 2.20206 18.9887 2.39355 18.698 2.39355Z" fill="white"/>
</svg>
