<svg width="18" height="17" viewBox="0 0 18 17" fill="none" xmlns="http://www.w3.org/2000/svg">
<path d="M14.7544 1.30309e-08L2.44803 2.16207e-09C1.05861 9.34948e-10 -9.23951e-10 1.04615 -2.13664e-09 2.41923L-1.28776e-08 14.5808C-1.40902e-08 15.9538 1.05861 17 2.44803 17L14.7544 17C16.1438 17 17.2024 15.9538 17.2024 14.5808L17.2024 2.41923C17.2024 1.04615 16.1438 1.4258e-08 14.7544 1.30309e-08ZM8.60119 13.6C11.4462 13.6 13.7619 11.3769 13.7619 8.69615C13.7619 8.23846 13.6957 7.71538 13.5634 7.32308L15.019 7.32308L15.019 14.2538C15.019 14.5808 14.7543 14.9077 14.3574 14.9077L2.84501 14.9077C2.5142 14.9077 2.18338 14.6462 2.18338 14.2538L2.18338 7.25769L3.70513 7.25769C3.57281 7.71538 3.50664 8.17308 3.50664 8.63077C3.44048 11.3769 5.75618 13.6 8.60119 13.6ZM8.60119 11.6385C6.74863 11.6385 5.29304 10.2 5.29304 8.43462C5.29304 6.66923 6.74863 5.23077 8.60119 5.23077C10.4538 5.23077 11.9093 6.66923 11.9093 8.43462C11.9093 10.2654 10.4538 11.6385 8.60119 11.6385ZM14.9528 4.64231C14.9528 5.03461 14.622 5.36154 14.225 5.36154L12.3725 5.36154C11.9755 5.36154 11.6447 5.03461 11.6447 4.64231L11.6447 2.87692C11.6447 2.48462 11.9755 2.15769 12.3725 2.15769L14.225 2.15769C14.622 2.15769 14.9528 2.48462 14.9528 2.87692L14.9528 4.64231Z" fill="white"/>
</svg>
