<svg width="22" height="18" viewBox="0 0 22 18" fill="none" xmlns="http://www.w3.org/2000/svg">
<path d="M2.33268 0.333496C1.61118 0.333496 0.975012 0.687831 0.582845 1.23275C0.318512 1.59891 0.435292 2.11795 0.817708 2.35628L10.3307 8.28499C10.7402 8.54066 11.2585 8.54066 11.668 8.28499L21.1408 2.3055C21.5384 2.05417 21.6375 1.50793 21.3439 1.14176C20.9485 0.649931 20.3453 0.333496 19.666 0.333496H2.33268ZM21.3079 4.75993C21.2173 4.76093 21.1253 4.78589 21.0392 4.84033L11.668 10.75C11.2585 11.0046 10.7402 11.0035 10.3307 10.7479L0.957357 4.90804C0.612857 4.69354 0.166016 4.94189 0.166016 5.34814V15.5002C0.166016 16.6972 1.1356 17.6668 2.33268 17.6668H19.666C20.8631 17.6668 21.8327 16.6972 21.8327 15.5002V5.27832C21.8327 4.97282 21.5797 4.75693 21.3079 4.75993Z" fill="white"/>
</svg>
