<svg width="20" height="20" viewBox="0 0 20 20" fill="none" xmlns="http://www.w3.org/2000/svg">
<path d="M18.6916 13.7787C18.0091 13.7624 17.15 13.7223 16.6073 13.627C16.0201 13.523 15.3137 13.3215 14.8165 13.1666C14.4265 13.0452 14.0018 13.1525 13.7126 13.4407L11.3108 15.8283C9.65117 14.9541 8.32192 13.9357 7.19633 12.8037C6.06425 11.6781 5.04592 10.3488 4.17167 8.68917L6.55933 6.28633C6.8475 5.99708 6.95475 5.57242 6.83342 5.18242C6.67958 4.68625 6.477 3.97992 6.37408 3.39275C6.27767 2.85 6.23867 1.99092 6.22133 1.30842C6.20725 0.718 5.72625 0.25 5.13583 0.25H1.33333C0.858833 0.25 0.25 0.605333 0.25 1.33333C0.25 6.25058 2.24333 10.9468 5.62983 14.3702C9.05317 17.7567 13.7494 19.75 18.6667 19.75C19.3947 19.75 19.75 19.1412 19.75 18.6667V14.8642C19.75 14.2737 19.282 13.7927 18.6916 13.7787Z" fill="white"/>
</svg>
