<svg width="16" height="19" viewBox="0 0 16 19" fill="none" xmlns="http://www.w3.org/2000/svg">
<path d="M13.1601 1.9149C11.8683 0.638306 10.0114 8.84195e-09 7.99297 7.0593e-09C4.92496 4.34967e-09 3.06801 1.2766 2.01843 2.31384C0.726634 3.59044 -4.65084e-09 5.26596 -6.20111e-09 7.02128C-8.10373e-09 9.17554 0.888109 10.7713 2.42211 11.4096C2.50285 11.4894 2.66432 11.4894 2.74506 11.4894C3.06801 11.4894 3.31023 11.25 3.39097 10.9309C3.47171 10.7713 3.55243 10.2926 3.63317 10.0532C3.71391 9.65427 3.63318 9.49469 3.39097 9.17554C2.98728 8.69681 2.74506 8.05852 2.74506 7.26065C2.74506 4.94682 4.52128 2.47341 7.75077 2.47341C10.3344 2.47341 11.9491 3.90958 11.9491 6.22341C11.9491 7.65958 11.6262 9.01597 11.061 10.0532C10.6573 10.7713 9.93067 11.5692 8.88109 11.5692C8.39666 11.5692 7.99298 11.4096 7.75077 11.0106C7.50856 10.6915 7.42781 10.2926 7.50854 9.89363C7.58928 9.41491 7.75076 8.93618 7.91223 8.45746C8.15444 7.5798 8.4774 6.70214 8.4774 6.06384C8.4774 4.94682 7.75076 4.14894 6.70117 4.14894C5.32864 4.14894 4.27906 5.50532 4.27906 7.18086C4.27906 8.05852 4.52129 8.61703 4.60203 8.85639C4.44055 9.57448 3.39096 13.8032 3.22949 14.5213C3.14875 15 2.42211 18.6702 3.55243 18.9096C4.76349 19.2287 5.89381 15.6383 5.97454 15.2394C6.05528 14.9202 6.37824 13.6436 6.53971 12.9255C7.10487 13.484 8.07372 13.883 9.04257 13.883C10.8188 13.883 12.3528 13.0851 13.4831 11.6489C14.5327 10.2926 15.1786 8.37767 15.1786 6.22341C15.0978 4.78724 14.4519 3.11171 13.1601 1.9149Z" fill="white"/>
</svg>
