<svg width="22" height="21" viewBox="0 0 22 21" fill="none" xmlns="http://www.w3.org/2000/svg">
<path d="M18.1402 3.0625C16.1411 1.09375 13.4756 1.19015e-08 10.662 9.41657e-09C4.81272 4.25053e-09 0.0740407 4.66667 0.0740407 10.4271C0.0740407 12.25 0.592334 14.0729 1.48084 15.6042L-1.8547e-08 21L5.62718 19.5417C7.18206 20.3438 8.88502 20.7813 10.662 20.7813C16.5113 20.7813 21.25 16.1146 21.25 10.3542C21.176 7.65625 20.1394 5.03125 18.1402 3.0625ZM15.7709 14.1458C15.5488 14.7292 14.5122 15.3125 13.9939 15.3854C13.5496 15.4583 12.9573 15.4583 12.365 15.3125C11.9948 15.1667 11.4765 15.0208 10.8841 14.7292C8.21864 13.6354 6.51568 11.0104 6.3676 10.7917C6.21951 10.6458 5.25697 9.40625 5.25697 8.09375C5.25697 6.78125 5.92334 6.19792 6.14547 5.90625C6.36759 5.61458 6.66376 5.61458 6.88589 5.61458C7.03397 5.61458 7.25609 5.61458 7.40418 5.61458C7.55226 5.61458 7.77439 5.54167 7.99651 6.05208C8.21864 6.5625 8.73693 7.875 8.81097 7.94792C8.88502 8.09375 8.88502 8.23958 8.81097 8.38542C8.73693 8.53125 8.66289 8.67708 8.5148 8.82292C8.36672 8.96875 8.21864 9.1875 8.1446 9.26042C7.99651 9.40625 7.84843 9.55208 7.99651 9.77083C8.1446 10.0625 8.66289 10.8646 9.47735 11.5937C10.5139 12.4687 11.3284 12.7604 11.6246 12.9063C11.9207 13.0521 12.0688 12.9792 12.2169 12.8333C12.365 12.6875 12.8833 12.1042 13.0314 11.8125C13.1794 11.5208 13.4016 11.5938 13.6237 11.6667C13.8458 11.7396 15.1786 12.3958 15.4007 12.5417C15.6969 12.6875 15.8449 12.7604 15.919 12.8333C15.993 13.0521 15.993 13.5625 15.7709 14.1458Z" fill="white"/>
</svg>
